# xmcd CD database file
#
# Track frame offsets:
#	150
#	15361
#	32390
#	49001
#	67265
#	85836
#	102203
#	118638
#	132553
#	149526
#	165389
#	185372
#	200984
#
# Disc length: 2816 seconds
#
# Revision: 0
# Processed by: cddbd v1.5.1PL0 Copyright (c) Steve Scherf et al.
# Submitted via: CDex 1.51
#
DISCID=b40afe0d
DTITLE=Arnesen Blues Band - Later In The Evening
DYEAR=2003
DGENRE=Blues
TTITLE0=Crazy for my baby
TTITLE1=Early in the morning
TTITLE2=T-Bone shuffle
TTITLE3=Stop breaking down
TTITLE4=Atchafalaya blues
TTITLE5=Wish me well
TTITLE6=Living in the fast lane
TTITLE7=Key to the highway
TTITLE8=On the other side
TTITLE9=You´ re my leader
TTITLE10=One way out
TTITLE11=Time to pass time
TTITLE12=It hurts me too
EXTD=YEAR: 2003
EXTT0=
EXTT1=
EXTT2=
EXTT3=
EXTT4=
EXTT5=
EXTT6=
EXTT7=
EXTT8=
EXTT9=
EXTT10=
EXTT11=
EXTT12=
PLAYORDER=
